# xmcd
#
# Track frame offsets:
# 150
# 15501
# 29490
# 46357
# 58980
# 81185
# 94101
# 107876
# 121061
# 134403
# 144503
# 155937
# 164754
# 176897
# 195383
# 206271
#
# Disc length: 2956 seconds
#
#
# Revision: 0
# Processed by: cddbd v1.5.1PL0 Copyright (c) Steve Scherf et al.
# Submitted via: FreeRIP 2.12 
#
DISCID=e60b8a10
DTITLE=volume 2 - country hits
DYEAR=2003
DGENRE=Country
TTITLE0=lee towers-rhinestone cowboy
TTITLE1=tumbleweeds-country girl
TTITLE2=billy ray cyrus-could've been me
TTITLE3=the statler brothers-take me home country roads
TTITLE4=john anderson-small town
TTITLE5=hank williams sr.-jambalaya (on the bayuo)
TTITLE6=patty loveless-i'm that kind of girl
TTITLE7=glen cambell&tanya tucker-dream lover
TTITLE8=the shadows-apache
TTITLE9=johnny cash-thing called love
TTITLE10=freddy fender-before the next teardrop falls
TTITLE11=roger whittaker-mexican whistler
TTITLE12=patsy cline-crazy
TTITLE13=don williams-i believe in you
TTITLE14=conway twitty-hello darlin'
TTITLE15=kenny rogers&the first edition-for the good times
EXTD=
EXTT0=
EXTT1=
EXTT2=
EXTT3=
EXTT4=
EXTT5=
EXTT6=
EXTT7=
EXTT8=
EXTT9=
EXTT10=
EXTT11=
EXTT12=
EXTT13=
EXTT14=
EXTT15=
PLAYORDER=
